<svg xmlns="http://www.w3.org/2000/svg" width="80" height="80" viewBox="399.4 70 43 43"><defs><style>.a{fill:#fff;}.b{fill:#161a1d;}.c{fill:#232f3e;}.d{fill:#265980;}.e{fill:#326de6;}</style></defs>
<path class="d" d="M440.31,239.29a7.81,7.81,0,0,0-4-6.95c-3.8-2.27-7.61-4.5-11.47-6.67a7.77,7.77,0,0,0-7.94,0c-3.86,2.17-7.67,4.4-11.47,6.67a7.77,7.77,0,0,0-4,6.95q-.06,6.75,0,13.48a7.81,7.81,0,0,0,4.09,7q5.58,3.32,11.21,6.52a7.91,7.91,0,0,0,8.31,0q5.64-3.19,11.21-6.52a7.82,7.82,0,0,0,4.1-7Q440.37,246,440.31,239.29Z" transform="translate(-0.2 -154.46)"/>
<path class="a" d="M439.12,252.57a6.92,6.92,0,0,1-3.52,6.22c-3.71,2.23-7.45,4.39-11.19,6.55a6.67,6.67,0,0,1-7.12,0c-3.74-2.16-7.49-4.32-11.19-6.55a6.92,6.92,0,0,1-3.52-6.22q0-6.52,0-13a7,7,0,0,1,3.59-6.29c3.68-2.19,7.39-4.35,11.1-6.49a6.74,6.74,0,0,1,7.16,0c3.71,2.14,7.42,4.3,11.1,6.49a7,7,0,0,1,3.59,6.29Q439.17,246,439.12,252.57Z" transform="translate(-0.2 -154.46)"/>
<path class="e" d="M418.21,246a.45.45,0,0,0-.06-.65l-2.1-1.88a5.77,5.77,0,0,0-.8,3.47l2.73-.79A.32.32,0,0,0,418.21,246Z" transform="translate(-0.2 -154.46)"/>
<path class="e" d="M419.43,244.19a.48.48,0,0,0,.49-.46l.17-2.84-.57.11a5.44,5.44,0,0,0-2.62,1.45l2.31,1.68A.6.6,0,0,0,419.43,244.19Z" transform="translate(-0.2 -154.46)"/>
<polygon class="e" points="419.83 92.57 420.6 92.94 421.37 92.57 421.56 91.75 421.02 91.06 420.14 91.06 419.6 91.75 419.83 92.57"/>
<path class="e" d="M421.74,244a.48.48,0,0,0,.62.11l2.31-1.65a5.45,5.45,0,0,0-3.19-1.53l.17,2.87A.27.27,0,0,0,421.74,244Z" transform="translate(-0.2 -154.46)"/>
<path class="e" d="M418.38,247.83l-2.81.48a5.55,5.55,0,0,0,2.19,2.79l1.08-2.62a.34.34,0,0,0,0-.28A.45.45,0,0,0,418.38,247.83Z" transform="translate(-0.2 -154.46)"/>
<path class="e" d="M420.94,249.05a.45.45,0,0,0-.57.11L419,251.7a5.77,5.77,0,0,0,3,.14c.2-.06.37-.09.51-.12l-1.36-2.47A1.37,1.37,0,0,0,420.94,249.05Z" transform="translate(-0.2 -154.46)"/>
<path class="e" d="M433.29,248.28l-2.17-9.3a1.84,1.84,0,0,0-.91-1l-8.67-4.15a1.54,1.54,0,0,0-.71-.15,2.8,2.8,0,0,0-.71.06l-8.68,4.18a1.51,1.51,0,0,0-.85,1l-2.16,9.36a1.76,1.76,0,0,0,.31,1.37l6,7.42a2.1,2.1,0,0,0,1.31.6h9.58a1.4,1.4,0,0,0,1.31-.6l6-7.42A2,2,0,0,0,433.29,248.28Zm-3.53.6a.22.22,0,0,1-.14,0s0,0-.06,0-.09,0-.11,0a1,1,0,0,1-.32-.11.44.44,0,0,1-.17-.06h0a4.35,4.35,0,0,0-.91-.25h0a.33.33,0,0,0-.22.08,0,0,0,0,1,0,0l-.23,0a7.08,7.08,0,0,1-3.1,3.87l.09.23a0,0,0,0,0,0,0,.31.31,0,0,0,0,.28,3.53,3.53,0,0,0,.45.83v0a.53.53,0,0,1,.12.15,1.18,1.18,0,0,1,.2.28.14.14,0,0,1,.05.09,0,0,0,0,1,0,0,.77.77,0,0,1,0,.45.47.47,0,0,1-.25.31.71.71,0,0,1-.23.06.63.63,0,0,1-.54-.34,0,0,0,0,1,0,0s0-.06-.06-.09a.87.87,0,0,1-.11-.31l-.06-.17v0c-.11-.28-.23-.57-.37-.85a.42.42,0,0,0-.23-.17s0,0,0,0l-.12-.2a8.06,8.06,0,0,1-.91.26,7.25,7.25,0,0,1-1.53.17,6.57,6.57,0,0,1-2.48-.46l-.11.23s0,0,0,0a.42.42,0,0,0-.23.17,5.27,5.27,0,0,0-.37.88l-.06.17a2.83,2.83,0,0,1-.11.31s-.06.06-.06.09,0,0,0,0a.65.65,0,0,1-.55.34.48.48,0,0,1-.22-.06.58.58,0,0,1-.23-.76,0,0,0,0,0,0,0s0-.06.06-.09.14-.23.19-.28a.53.53,0,0,0,.12-.15v0a4.44,4.44,0,0,0,.45-.83.31.31,0,0,0,0-.28s0,0,0,0l.11-.23a4.67,4.67,0,0,1-.77-.51,6.86,6.86,0,0,1-2.33-3.33l-.26,0s0,0,0,0a.32.32,0,0,0-.23-.08h0a4.52,4.52,0,0,0-.91.25h0a.39.39,0,0,0-.17.06l-.31.11c-.06,0-.12,0-.12,0s0,0,0,0a.22.22,0,0,1-.14,0,.53.53,0,0,1-.57-.4.56.56,0,0,1,.46-.65s0,0,.06,0,.08,0,.11,0l.34,0a.34.34,0,0,1,.17,0h0a5.18,5.18,0,0,0,1-.17c.08-.06.17-.11.2-.2s0,0,0,0l.23-.05a6.8,6.8,0,0,1,1-4.67,1,1,0,0,0,.08-.14l-.17-.17v0a.29.29,0,0,0-.08-.26,9.31,9.31,0,0,0-.8-.54l-.17-.08-.31-.17s-.09-.06-.09-.06a0,0,0,0,0,0,0,.61.61,0,0,1-.11-.79.49.49,0,0,1,.43-.2.67.67,0,0,1,.4.14l0,0s.06,0,.09.05.14.18.23.26a.57.57,0,0,1,.11.11,8.81,8.81,0,0,0,.71.66.32.32,0,0,0,.17.06c.06,0,.09,0,.12,0h0l.17.11a6.75,6.75,0,0,1,3.49-2c.35-.06.66-.11,1-.14l0-.23,0,0a.43.43,0,0,0,.14-.23,5,5,0,0,0-.06-1v0a.47.47,0,0,0,0-.17,1.43,1.43,0,0,1-.06-.34v-.15a.56.56,0,0,1,.17-.39.6.6,0,0,1,.45-.17.51.51,0,0,1,.49.56v.18c0,.11,0,.22-.06.34s0,.11,0,.17v0a6.37,6.37,0,0,0,0,1,.33.33,0,0,0,.14.23l0,0,0,.23a7.21,7.21,0,0,1,3.7,1.48c.23.22.49.45.71.68l.23-.17a.17.17,0,0,0,.11,0,.43.43,0,0,0,.18-.06,5.17,5.17,0,0,0,.71-.63s.08-.05.11-.11a1.79,1.79,0,0,1,.23-.26s.05,0,.08-.05l0,0a.67.67,0,0,1,.4-.14.56.56,0,0,1,.4.19.56.56,0,0,1-.12.8l0,0-.09.06c-.11.05-.2.11-.31.17l-.17.08a4.68,4.68,0,0,0-.8.54.39.39,0,0,0-.09.26v0l-.17.17a7.64,7.64,0,0,1,1,2.33,7.27,7.27,0,0,1,.11,2.5l.23.06a0,0,0,0,1,0,0,.36.36,0,0,0,.2.2,6.35,6.35,0,0,0,1,.17h0a.36.36,0,0,0,.17,0,1.38,1.38,0,0,1,.35,0s.11,0,.11,0,0,0,0,0a.8.8,0,0,1,.57.57A.63.63,0,0,1,429.76,248.88Z" transform="translate(-0.2 -154.46)"/>
<path class="e" d="M425.52,243.5l-2.13,1.94a.4.4,0,0,0-.12.2.48.48,0,0,0,.34.57l2.71.76a5.43,5.43,0,0,0-.12-1.79A5.87,5.87,0,0,0,425.52,243.5Z" transform="translate(-0.2 -154.46)"/>
<path class="e" d="M422.93,247.86a.46.46,0,0,0-.25.56l1.11,2.65a5.34,5.34,0,0,0,1.7-1.71,4,4,0,0,0,.54-1.08l-2.84-.48A.82.82,0,0,0,422.93,247.86Z" transform="translate(-0.2 -154.46)"/>
</svg>
